# xmcd
#
# Track frame offsets: 
#        150
#        11644
#        32596
#        50113
#        66578
#        84359
#        106280
#        122949
#        142242
#        159253
#        173935
#
# Disc length: 2535 seconds
#
# Revision: 0
# Processed by: cddbd v1.5.2PL0 Copyright (c) Steve Scherf et al.
# Submitted via: ExactAudioCopyFreeDBPlugin 1.0
#
DISCID=9a09e50b
DTITLE=Roy Rogers - Into the Wild Blue
DYEAR=2015
DGENRE=Blues
TTITLE0=Last Go-Round
TTITLE1=Don't You Let Them Win
TTITLE2=Got to Believe
TTITLE3=Losin' You
TTITLE4=She's a Real Jaguar
TTITLE5=Dackin'
TTITLE6=Love Is History
TTITLE7=Into the Wild Blue
TTITLE8=High Steppin'
TTITLE9=Dark Angels
TTITLE10=Song for Robert (a Brother's Lament)
EXTD=
EXTT0=
EXTT1=
EXTT2=
EXTT3=
EXTT4=
EXTT5=
EXTT6=
EXTT7=
EXTT8=
EXTT9=
EXTT10=
PLAYORDER=
